<?xml version="1.0" encoding="UTF-8" standalone="no"?>
<!DOCTYPE svg PUBLIC "-//W3C//DTD SVG 1.1//EN"
 "http://www.w3.org/Graphics/SVG/1.1/DTD/svg11.dtd">
<!-- Generated by graphviz version 14.1.2 (20260124.0452)
 -->
<!-- Pages: 1 -->
<svg width="214pt" height="255pt"
 viewBox="0.00 0.00 214.00 255.00" xmlns="http://www.w3.org/2000/svg" xmlns:xlink="http://www.w3.org/1999/xlink">
<g id="graph0" class="graph" transform="scale(1 1) rotate(0) translate(28.8 226.55)">
<polygon fill="white" stroke="none" points="-28.8,28.8 -28.8,-226.55 185.48,-226.55 185.48,28.8 -28.8,28.8"/>
<text xml:space="preserve" text-anchor="middle" x="78.34" y="-159.55" font-family="Helvetica,sans-Serif" font-size="36.00">app</text>
<!-- app -->
<g id="node1" class="node">
<title>app</title>
<polygon fill="#5397c8" stroke="black" points="44.07,-60.49 44.07,-101.99 98.07,-101.99 98.07,-60.49 44.07,-60.49"/>
<text xml:space="preserve" text-anchor="middle" x="71.07" y="-88.49" font-family="monospace" font-size="10.00">crate</text>
<polyline fill="none" stroke="black" points="44.07,-81.24 98.07,-81.24"/>
<text xml:space="preserve" text-anchor="middle" x="71.07" y="-67.74" font-family="monospace" font-size="10.00">app</text>
</g>
<!-- app::commands -->
<g id="node2" class="node">
<title>app::commands</title>
<polygon fill="#81c169" stroke="black" points="62.68,-111 62.68,-152.5 156.68,-152.5 156.68,-111 62.68,-111"/>
<text xml:space="preserve" text-anchor="middle" x="109.68" y="-139" font-family="monospace" font-size="10.00">external mod</text>
<polyline fill="none" stroke="black" points="62.68,-131.75 156.68,-131.75"/>
<text xml:space="preserve" text-anchor="middle" x="109.68" y="-118.25" font-family="monospace" font-size="10.00">app::commands</text>
</g>
<!-- app&#45;&gt;app::commands -->
<g id="edge1" class="edge">
<title>app&#45;&gt;app::commands</title>
<path fill="none" stroke="#7f7f7f" stroke-dasharray="5,2" d="M87.22,-102.37C87.29,-102.45 87.35,-102.54 87.42,-102.62"/>
<polygon fill="#7f7f7f" stroke="#7f7f7f" points="83.7,-103.52 92.55,-109.34 89.26,-99.27 83.7,-103.52"/>
<text xml:space="preserve" text-anchor="middle" x="75.32" y="-105.75" font-family="monospace" font-size="10.00">uses</text>
</g>
<!-- app::lifecycle -->
<g id="node3" class="node">
<title>app::lifecycle</title>
<polygon fill="#81c169" stroke="black" points="0,-0.5 0,-42 100,-42 100,-0.5 0,-0.5"/>
<text xml:space="preserve" text-anchor="middle" x="50" y="-28.5" font-family="monospace" font-size="10.00">external mod</text>
<polyline fill="none" stroke="black" points="0,-21.25 100,-21.25"/>
<text xml:space="preserve" text-anchor="middle" x="50" y="-7.75" font-family="monospace" font-size="10.00">app::lifecycle</text>
</g>
<!-- app&#45;&gt;app::lifecycle -->
<g id="edge2" class="edge">
<title>app&#45;&gt;app::lifecycle</title>
<path fill="none" stroke="#7f7f7f" stroke-dasharray="5,2" d="M63.7,-60.26C62.87,-57.9 62.01,-55.46 61.15,-53"/>
<polygon fill="#7f7f7f" stroke="#7f7f7f" points="64.52,-52.03 57.9,-43.75 57.91,-54.35 64.52,-52.03"/>
<text xml:space="preserve" text-anchor="middle" x="50.43" y="-47.13" font-family="monospace" font-size="10.00">uses</text>
</g>
</g>
</svg>
